<svg id="_ÎÓÈ_1" data-name="—ÎÓÈ_1" xmlns="http://www.w3.org/2000/svg" xmlns:xlink="http://www.w3.org/1999/xlink" viewBox="0 0 1179.12 1188.12"><defs><style>.cls-1{fill:#fff;}.cls-2{fill:url(#linear-gradient);}.cls-3{fill:none;stroke-miterlimit:10;stroke-width:69px;stroke:url(#linear-gradient-2);}</style><linearGradient id="linear-gradient" x1="591.6" y1="1020.75" x2="591.6" y2="162.71" gradientUnits="userSpaceOnUse"><stop offset="0" stop-color="#079439"/><stop offset="0" stop-color="#099439"/><stop offset="0.06" stop-color="#41a02e"/><stop offset="0.12" stop-color="#73aa25"/><stop offset="0.19" stop-color="#9eb31d"/><stop offset="0.25" stop-color="#c0ba17"/><stop offset="0.31" stop-color="#dbc012"/><stop offset="0.38" stop-color="#eec40f"/><stop offset="0.44" stop-color="#f9c60d"/><stop offset="0.51" stop-color="#fdc70c"/><stop offset="0.67" stop-color="#f3903f"/><stop offset="0.89" stop-color="#ed683c"/><stop offset="1" stop-color="#81113e"/></linearGradient><linearGradient id="linear-gradient-2" x1="15.54" y1="591.73" x2="1167.66" y2="591.73" gradientTransform="translate(-245.05 603.92) rotate(-45.84)" gradientUnits="userSpaceOnUse"><stop offset="0" stop-color="#00a05e"/><stop offset="0.18" stop-color="#559f47"/><stop offset="0.28" stop-color="#819e3b"/><stop offset="0.67" stop-color="#f6ca5e"/><stop offset="1" stop-color="#ac1355"/></linearGradient></defs><title>graphicstock-black-anchor-icon-with-sharp-hool-vector-illustration_S69051X_- [Converted]-01</title><circle class="cls-1" cx="591.6" cy="594.06" r="523.48"/><path class="cls-2" d="M867.62,731.63c-11.42-26.39-54.24-42.94-82.07-40.48-1.21.06-2.41.2-3.59.37-3.31-13.61-.47-33.77-1.13-46.7-14.5,29.58-37.53,55.9-61.41,78.29,32.7-1.4,67.62.57,98.9,10.91-9-9.72-25.83-22.09-33-34.21a46.42,46.42,0,0,1,6.48.41c27.78,5,73.15,23.62,59.85,59.44-17.36,46.75-74,81.81-113,109-33.73,23.5-68.54,45.35-103.49,67,6.33-150.18-59.4-447.69-10.42-503.74,17.49-20,106.32,0,106.32,0V385.52H614.77V285.13a63.41,63.41,0,1,0-46.35,0V385.52H452.17v46.35s88.83-20,106.32,0c49,56.05-16.75,353.56-10.42,503.74-34.94-21.64-69.76-43.49-103.49-67-39-27.15-95.66-62.21-113-109-13.3-35.82,32.07-54.45,59.85-59.44a46.42,46.42,0,0,1,6.48-.41c-7.18,12.12-24.05,24.49-33,34.21,31.28-10.34,66.2-12.31,98.9-10.91-23.88-22.39-46.91-48.71-61.41-78.29-.66,12.93,2.18,33.09-1.13,46.7-1.18-.17-2.38-.31-3.59-.37-27.83-2.46-70.65,14.09-82.07,40.48-20,46.12,39.53,99.22,68.91,126.7,63.23,59.16,206.27,163,207.11,162.42.84.62,143.88-103.26,207.11-162.42C828.09,830.85,887.58,777.75,867.62,731.63ZM549.21,226.12a42.39,42.39,0,1,1,42.39,42.39A42.44,42.44,0,0,1,549.21,226.12Z"/><circle class="cls-3" cx="591.6" cy="591.73" r="541.56" transform="translate(-245.14 591.64) rotate(-45)"/></svg>